<?xml version="1.0" encoding="UTF-8" standalone="no"?>
<!-- Created with Inkscape (http://www.inkscape.org/) -->

<svg
   version="1.1"
   id="svg1"
   width="390.66666"
   height="161.33333"
   viewBox="0 0 390.66666 161.33333"
   sodipodi:docname="TES.svg"
   inkscape:version="1.3 (0e150ed6c4, 2023-07-21)"
   xmlns:inkscape="http://www.inkscape.org/namespaces/inkscape"
   xmlns:sodipodi="http://sodipodi.sourceforge.net/DTD/sodipodi-0.dtd"
   xmlns="http://www.w3.org/2000/svg"
   xmlns:svg="http://www.w3.org/2000/svg">
  <defs
     id="defs1">
    <clipPath
       clipPathUnits="userSpaceOnUse"
       id="clipPath10">
      <path
         d="M 0,0 H 293 V 121 H 0 Z"
         transform="scale(3.6705195,-1)"
         id="path10" />
    </clipPath>
    <clipPath
       clipPathUnits="userSpaceOnUse"
       id="clipPath11">
      <path
         d="M 0,0 H 293 V 121 H 0 Z"
         transform="scale(1.3333333)"
         id="path11" />
    </clipPath>
    <clipPath
       clipPathUnits="userSpaceOnUse"
       id="clipPath13">
      <path
         d="M 0,0 H 293 V 121 H 0 Z"
         id="path13" />
    </clipPath>
    <clipPath
       clipPathUnits="userSpaceOnUse"
       id="clipPath15">
      <path
         d="M 0,0 H 293 V 121 H 0 Z"
         transform="scale(8.3563132,-1)"
         id="path15" />
    </clipPath>
    <clipPath
       clipPathUnits="userSpaceOnUse"
       id="clipPath16">
      <path
         d="M 259.426,0 H 293 v 121 h -33.574 z"
         transform="scale(1.3333333)"
         id="path16" />
    </clipPath>
    <clipPath
       clipPathUnits="userSpaceOnUse"
       id="clipPath18">
      <path
         d="M 259.426,0 H 293 v 121 h -33.574 z"
         transform="scale(1.3333333)"
         id="path18" />
    </clipPath>
    <clipPath
       clipPathUnits="userSpaceOnUse"
       id="clipPath19">
      <path
         d="M 0,0 H 293 V 121 H 0 Z"
         id="path19" />
    </clipPath>
    <clipPath
       clipPathUnits="userSpaceOnUse"
       id="clipPath21">
      <path
         d="M 223.566,0 H 293 v 121 h -69.434 z"
         transform="scale(1.3333333)"
         id="path21" />
    </clipPath>
  </defs>
  <sodipodi:namedview
     id="namedview1"
     pagecolor="#ffffff"
     bordercolor="#000000"
     borderopacity="0.25"
     inkscape:showpageshadow="2"
     inkscape:pageopacity="0.0"
     inkscape:pagecheckerboard="0"
     inkscape:deskcolor="#d1d1d1"
     inkscape:zoom="2.1249404"
     inkscape:cx="249.41876"
     inkscape:cy="73.884425"
     inkscape:window-width="1280"
     inkscape:window-height="730"
     inkscape:window-x="-6"
     inkscape:window-y="-6"
     inkscape:window-maximized="1"
     inkscape:current-layer="g1">
    <inkscape:page
       x="0"
       y="0"
       inkscape:label="1"
       id="page1"
       width="390.66666"
       height="161.33333"
       margin="0"
       bleed="0" />
  </sodipodi:namedview>
  <g
     id="g1"
     inkscape:groupmode="layer"
     inkscape:label="1">
    <path
       id="path1"
       d="M 50.242,6.758 H 265.871 V 90.891 H 50.242 Z"
       style="fill:#ffffff;fill-opacity:1;fill-rule:nonzero;stroke:#000000;stroke-width:2.32687;stroke-linecap:butt;stroke-linejoin:miter;stroke-miterlimit:10;stroke-dasharray:none;stroke-opacity:1"
       transform="scale(1.3333333)" />
    <path
       id="path2"
       d="M 51.387,77.418 H 264.754 V 89.691 H 51.387 Z"
       style="fill:#abe4fa;fill-opacity:1;fill-rule:nonzero;stroke:none"
       transform="scale(1.3333333)" />
    <path
       id="path3"
       d="m 109.19333,136.78133 h 16.312 v 15.83333 h -16.312 z"
       style="fill:#ffffff;fill-opacity:1;fill-rule:nonzero;stroke:#000000;stroke-width:2.64207;stroke-linecap:butt;stroke-linejoin:miter;stroke-miterlimit:10;stroke-dasharray:none;stroke-opacity:1" />
    <path
       id="path4"
       d="m 190.18266,136.828 h 16.30667 v 15.83333 h -16.30667 z"
       style="fill:#ffffff;fill-opacity:1;fill-rule:nonzero;stroke:#000000;stroke-width:2.64207;stroke-linecap:butt;stroke-linejoin:miter;stroke-miterlimit:10;stroke-dasharray:none;stroke-opacity:1" />
    <path
       id="path5"
       d="m 267.23466,136.828 h 16.312 v 15.83333 h -16.312 z"
       style="fill:#ffffff;fill-opacity:1;fill-rule:nonzero;stroke:#000000;stroke-width:2.64207;stroke-linecap:butt;stroke-linejoin:miter;stroke-miterlimit:10;stroke-dasharray:none;stroke-opacity:1" />
    <path
       id="path6"
       d="M 109.31733,136.896 H 125.448 v 15.57866 h -16.13067 z"
       style="fill:#ff9955;fill-opacity:1;fill-rule:nonzero;stroke:none;stroke-width:1.33333" />
    <path
       id="path7"
       d="m 190.26,136.75066 h 16.13066 v 15.584 H 190.26 Z"
       style="fill:#b9b9b9;fill-opacity:1;fill-rule:nonzero;stroke:none;stroke-width:1.33333" />
    <path
       id="path8"
       d="M 51.328,7.953 H 264.891 V 69.285 H 51.328 Z"
       style="fill:#ff9955;fill-opacity:1;fill-rule:nonzero;stroke:none"
       transform="scale(1.3333333)" />
    <path
       id="path9"
       d="m 52.902,10.156 v 59.035 h -1.527 v 8.258 h 213.379 v -8.258 h -0.992 V 10.496 h -1.668 V 69.191 H 258.52 V 10.5 h -1.665 v 58.691 h -3.554 V 10.492 h -1.668 v 58.699 h -3.57 V 10.488 h -1.668 V 69.191 H 242.84 V 10.426 h -1.668 v 58.765 h -3.57 V 10.43 h -1.668 v 58.761 h -3.555 V 10.422 h -1.668 v 58.769 h -3.57 V 10.418 h -1.668 v 58.773 h -3.555 V 10.367 h -1.668 v 58.824 h -3.574 v -58.82 h -1.664 v 58.82 h -3.555 V 10.367 h -1.668 v 58.824 h -3.57 V 10.363 h -1.668 v 58.828 h -3.543 V 10.355 h -1.668 v 58.836 h -3.57 V 10.359 h -1.668 v 58.832 h -3.555 V 10.355 h -1.664 v 58.836 h -3.574 V 10.352 h -1.668 v 58.839 h -3.582 V 10.324 h -1.664 V 69.191 H 174.82 V 10.328 h -1.668 v 58.863 h -3.554 V 10.324 h -1.664 v 58.867 h -3.571 V 10.32 h -1.668 v 58.871 h -3.558 V 10.27 h -1.668 v 58.921 h -3.571 V 10.273 h -1.668 v 58.918 h -3.554 V 10.266 h -1.664 v 58.925 h -3.574 V 10.262 h -1.665 V 69.191 H 138.23 V 10.254 h -1.667 v 58.937 h -3.575 V 10.258 h -1.664 V 69.191 H 127.77 V 10.254 h -1.668 v 58.937 h -3.571 V 10.25 h -1.668 V 69.191 H 117.32 V 10.23 h -1.668 v 58.961 h -3.57 V 10.238 h -1.668 v 58.953 h -3.555 V 10.23 h -1.668 v 58.961 h -3.57 V 10.227 H 99.953 V 69.191 H 96.398 V 10.176 H 94.73 V 69.191 H 91.156 V 10.18 H 89.492 V 69.191 H 85.938 V 10.176 H 84.27 V 69.191 H 80.699 V 10.172 H 79.031 V 69.191 H 75.488 V 10.16 H 73.82 V 69.191 H 70.25 V 10.168 H 68.582 V 69.191 H 65.027 V 10.16 H 63.363 V 69.191 H 59.789 V 10.156 H 58.121 V 69.191 H 54.57 V 10.156 Z"
       style="fill:#8c8c8c;fill-opacity:1;fill-rule:nonzero;stroke:none"
       transform="scale(1.3333333)" />
    <g
       id="g13">
      <g
         clip-path="url(#clipPath11)"
         id="g12">
        <path
           d="m 17.019,-84.863 123.263,-0.211"
           style="fill:none;stroke:#000000;stroke-width:0.718447;stroke-linecap:butt;stroke-linejoin:miter;stroke-miterlimit:10;stroke-dasharray:none;stroke-opacity:1"
           transform="scale(0.36325467,-1.3333333)"
           clip-path="url(#clipPath10)"
           id="path12" />
      </g>
    </g>
    <g
       id="g14">
      <path
         d="m 49.051,85.09 c -5.094,1.812 -11.414,4.914 -15.336,8.207 l 3.098,-8.231 -3.067,-8.234 c 3.906,3.301 10.219,6.426 15.305,8.258"
         style="fill:#000000;fill-opacity:1;fill-rule:nonzero;stroke:none"
         transform="scale(1.3333333)"
         clip-path="url(#clipPath13)"
         id="path14" />
    </g>
    <g
       id="g18"
       clip-path="url(#clipPath18)">
      <g
         clip-path="url(#clipPath16)"
         id="g17">
        <path
           d="m 2214.618,-85.047 123.288,-0.211"
           style="fill:none;stroke:#000000;stroke-width:1.08402;stroke-linecap:butt;stroke-linejoin:miter;stroke-miterlimit:10;stroke-dasharray:none;stroke-opacity:1"
           transform="scale(0.15956,-1.3333333)"
           clip-path="url(#clipPath15)"
           id="path17" />
      </g>
    </g>
    <g
       id="g20"
       clip-path="url(#clipPath21)">
      <path
         d="m 290.617,85.273 c -5.094,1.813 -11.414,4.915 -15.336,8.207 l 3.098,-8.23 -3.066,-8.234 c 3.906,3.3 10.218,6.425 15.304,8.257"
         style="fill:#000000;fill-opacity:1;fill-rule:nonzero;stroke:none"
         transform="scale(1.3333333)"
         clip-path="url(#clipPath19)"
         id="path20" />
    </g>
    <path
       id="path23"
       d="m 267.33333,137.016 h 16.13066 v 15.57866 h -16.13066 z"
       style="fill:#abe4fa;fill-opacity:1;fill-rule:nonzero;stroke:none;stroke-width:1.33333" />
    <text
       id="text23"
       xml:space="preserve"
       transform="scale(1.0175665,0.98273676)"
       x="280.4729"
       y="151.88434"
       style="font-size:15.7238px;stroke-width:1.31032"><tspan
         style="font-variant:normal;font-weight:normal;font-size:14.0911px;font-family:'Times New Roman';writing-mode:lr-tb;fill:#000000;fill-opacity:1;fill-rule:nonzero;stroke:none;stroke-width:1.31032"
         x="280.4729 288.30975 292.22473 299.27036 303.18533"
         y="151.88434"
         sodipodi:role="line"
         id="tspan23">Fluid</tspan><tspan
         style="font-variant:normal;font-weight:normal;font-size:14.0911px;font-family:'Times New Roman';writing-mode:lr-tb;fill:#000000;fill-opacity:1;fill-rule:nonzero;stroke:none;stroke-width:1.31032"
         x="206.9024 219.43166 225.68596 229.60091 235.85521"
         y="151.85815"
         sodipodi:role="line"
         id="tspan24">Metal</tspan></text>
    <text
       id="text24"
       xml:space="preserve"
       transform="matrix(1.3333315,0.00218908,-0.00226665,1.2876937,14.094155,124.71189)"><tspan
         style="font-style:italic;font-variant:normal;font-weight:normal;font-size:12.2108px;font-family:'Times New Roman';writing-mode:lr-tb;fill:#000000;fill-opacity:1;fill-rule:nonzero;stroke:none"
         x="0"
         y="0"
         id="tspan25">m</tspan></text>
    <text
       id="text25"
       xml:space="preserve"
       transform="matrix(1.3333315,0.00218908,-0.00226666,1.2876938,25.846264,127.87595)"><tspan
         style="font-style:italic;font-variant:normal;font-weight:normal;font-size:10.1756px;font-family:'Times New Roman';writing-mode:lr-tb;fill:#000000;fill-opacity:1;fill-rule:nonzero;stroke:none"
         x="0 2.8271182 7.3435512"
         y="0"
         sodipodi:role="line"
         id="tspan26">tes</tspan></text>
    <text
       id="text26"
       xml:space="preserve"
       transform="scale(1.0175665,0.98273676)"
       x="127.62194"
       y="151.85812"
       style="font-size:15.7238px;stroke-width:1.31032"><tspan
         style="font-variant:normal;font-weight:normal;font-size:14.0911px;font-family:'Times New Roman';writing-mode:lr-tb;fill:#000000;fill-opacity:1;fill-rule:nonzero;stroke:none;stroke-width:1.31032"
         x="127.62194 135.45869 144.85735"
         y="151.85812"
         sodipodi:role="line"
         id="tspan27">PCM</tspan></text>
    <path
       id="path27"
       d="m 16.035,87.152 c 0,0.313 -0.254,0.563 -0.562,0.563 -0.313,0 -0.563,-0.25 -0.563,-0.563 0,-0.312 0.25,-0.562 0.563,-0.562 0.308,0 0.562,0.25 0.562,0.562 z"
       style="fill:#000000;fill-opacity:1;fill-rule:nonzero;stroke:none"
       transform="scale(1.3333333)" />
    <g
       id="g2"
       transform="matrix(3.7795276,0,0,3.7795276,-26.649766,-358.49725)">
      <path
         style="fill:#0000ff;stroke:#000000;stroke-width:0.352999;stroke-miterlimit:3.5;stroke-dasharray:1.412, 0.705999, 0.352999, 0.705999;stroke-dashoffset:0"
         d="m 24.69997,102.76048 75.99491,-0.001"
         id="path1-2" />
      <path
         style="fill:#0000ff;stroke:#000000;stroke-width:0.352999;stroke-miterlimit:3.5;stroke-dasharray:1.412, 0.705999, 0.352999, 0.705999;stroke-dashoffset:0"
         d="m 24.714596,108.22994 75.994904,-0.001"
         id="path1-1-4" />
      <path
         style="fill:#0000ff;stroke:#000000;stroke-width:0.352999;stroke-miterlimit:3.5;stroke-dasharray:1.412, 0.705999, 0.352999, 0.705999;stroke-dashoffset:0"
         d="m 24.736263,113.68377 75.994907,-10e-4"
         id="path1-9-6" />
      <path
         style="fill:#0000ff;stroke:#000000;stroke-width:0.352999;stroke-miterlimit:3.5;stroke-dasharray:1.412, 0.705999, 0.352999, 0.705999;stroke-dashoffset:0"
         d="m 24.735715,119.18348 75.994905,-0.001"
         id="path1-3-0" />
      <path
         style="fill:#0000ff;stroke:#000000;stroke-width:0.352999;stroke-miterlimit:3.5;stroke-dasharray:1.412, 0.705999, 0.352999, 0.705999;stroke-dashoffset:0"
         d="m 24.734634,122.0931 75.994906,-0.001"
         id="path1-0-2" />
      <path
         style="fill:#0000ff;stroke:#000000;stroke-width:0.352999;stroke-miterlimit:3.5;stroke-dasharray:1.412, 0.705998, 0.352999, 0.705998;stroke-dashoffset:0"
         d="M 48.940513,126.58373 48.940361,97.482615"
         id="path1-8-8" />
      <path
         style="fill:#0000ff;stroke:#000000;stroke-width:0.352999;stroke-miterlimit:3.5;stroke-dasharray:1.412, 0.705998, 0.352999, 0.705998;stroke-dashoffset:0"
         d="M 76.594477,126.60862 76.594325,97.507498"
         id="path1-8-6-5" />
    </g>
  </g>
</svg>
